Simulation
nRows=24
nColumns=15
endheader
time  TH_x TH_y TH_z SC_y  SC_z  SC_x  AC_y  AC_z  AC_x  GH_y  GH_z  GH_yy  EL_x  PS_y
1.0  0.000000  0.000000  0.000000  27.608541650088284  2.3111526913464178  -179.81557976418839  -46.483655889552836  -4.193339920643591  177.20002703482078  87.8090186554133  131.67835535620858  -96.38799820654714  6.5161853415349595  0.000000
1.02  0.000000  0.000000  0.000000  27.606382540748307  2.3015751790164547  -179.81003523488562  -46.48174589933372  -4.1848083840568995  177.20036050486723  87.80101628759412  131.69697058893738  -96.38198307768603  6.51746679683529  0.000000
1.04  0.000000  0.000000  0.000000  27.60840690087786  2.2868161022316054  -179.80355495813774  -46.47527403882189  -4.179255499581008  177.20465731487784  87.79645260380731  131.75121131913278  -96.35048224249593  6.524685124711488  0.000000
1.06  0.000000  0.000000  0.000000  27.61450983819032  2.2670254962023977  -179.79613602970198  -46.464258974892594  -4.1767994403393445  177.21281820669748  87.79540317622902  131.8413893181255  -96.29386640530329  6.537786875080478  0.000000
1.08  0.000000  0.000000  0.000000  27.62455013175355  2.242400095208797  -179.78768188869094  -46.44865899196828  -4.177611127005542  177.22467177528034  87.7979001718863  131.9681009992548  -96.21274934401264  6.5566691077564565  0.000000
1.1  0.000000  0.000000  0.000000  27.638317744215087  2.2131701216660433  -179.7779990107129  -46.428433766695086  -4.181925312154036  177.23998122728065  87.80397909479471  132.13218564312592  -96.10804873510345  6.581196859744367  0.000000
1.12  0.000000  0.000000  0.000000  27.65554158879488  2.1796306440474296  -179.76683298989744  -46.40349353481268  -4.189999083509231  177.25839353120244  87.81365204159712  132.33480056813494  -95.9808856548294  6.611186133233352  0.000000
1.1400000000000001  0.000000  0.000000  0.000000  27.675834779306186  2.142137379025031  -179.75386614406693  -46.373738376309895  -4.202117708879399  177.27942820830287  87.82694056675022  132.5773772928855  -95.83263002632275  6.646441092087076  0.000000
1.16  0.000000  0.000000  0.000000  27.698684073817347  2.1011736645609633  -179.73869489783434  -46.33899664895345  -4.218573633216732  177.3023223480511  87.84388823810072  132.8616691059683  -95.66475022969082  6.686758292894639  0.000000
1.18  0.000000  0.000000  0.000000  27.723181106481615  2.057095887657457  -179.72115710742762  -46.298928824807284  -4.2396180212957795  177.32637299568228  87.86467807280397  133.1899011166141  -95.47882702361497  6.731698810573221  0.000000
1.2  0.000000  0.000000  0.000000  27.74867929961583  2.0101734842317653  -179.70127907409767  -46.25325322381829  -4.26508413635383  177.35086559913432  87.88962124011937  133.56471908589302  -95.27649161721169  6.780831975504757  0.000000
1.22  0.000000  0.000000  0.000000  27.775226823407447  1.961019799144644  -179.67910675944682  -46.2023985027363  -4.294408997786249  177.37480971698955  87.91877770338958  133.98892348202867  -95.06004326741404  6.833962395072492  0.000000
1.24  0.000000  0.000000  0.000000  27.80265751931224  1.9104613340817354  -179.65528815721433  -46.147171194109944  -4.32691337871888  177.397461977134  87.95157968671178  134.465744695593  -94.83260001672285  6.890456552557793  0.000000
1.26  0.000000  0.000000  0.000000  27.830478110024348  1.8593461658173995  -179.63091180175346  -46.08836190539413  -4.361778072536548  177.41819817995793  87.98755128838364  134.9986849365267  -94.59735213031489  6.949417098417321  0.000000
1.28  0.000000  0.000000  0.000000  27.858162733092428  1.8086337781038013  -179.6071822645664  -46.02685208076824  -4.397929516337542  177.43610176292793  88.02626563227962  135.59129502668557  -94.35739272142278  7.010012011584936  0.000000
1.3  0.000000  0.000000  0.000000  27.884989272060455  1.75935031815421  -179.58545544190318  -45.96360038307378  -4.4340963143894765  177.45005292491996  88.06730231997425  136.24701738434857  -94.11582638065785  7.071394153332067  0.000000
1.32  0.000000  0.000000  0.000000  27.910156792897663  1.7126426014111071  -179.56716272687154  -45.89959064955896  -4.468831671063156  177.45865018632253  88.11022263796242  136.96900773282198  -93.87558940335717  7.132713833959086  0.000000
1.34  0.000000  0.000000  0.000000  27.93308808607445  1.6695627316113615  -179.55395686715434  -45.83582239624373  -4.500615065913435  177.46055170064406  88.15490694462854  137.75981238894457  -93.63903666117656  7.193315996686492  0.000000
1.36  0.000000  0.000000  0.000000  27.95351601817187  1.6306851563188802  -179.54801158253164  -45.77297035281289  -4.52781573104446  177.45514331007192  88.20151789994178  138.62134391896518  -93.40763570583123  7.252992783726245  0.000000
1.3800000000000001  0.000000  0.000000  0.000000  27.970750737126505  1.5963541397946148  -179.55073561639236  -45.711947624734535  -4.548879862162656  177.44193722605004  88.25028365431642  139.55432597558593  -93.182745335634  7.311189967595532  0.000000
1.4000000000000001  0.000000  0.000000  0.000000  27.983587062917238  1.5673183406142237  -179.56226934670403  -45.65425360866528  -4.562429864403551  177.4202997220444  88.30089643130434  140.55817415265756  -92.96637387905282  7.366631665369904  0.000000
1.42  0.000000  0.000000  0.000000  27.991130834411518  1.5441060863373222  -179.58301589363353  -45.60160374986172  -4.5674122764081435  177.39063846014403  88.35273799144832  141.6311780425166  -92.76051798205891  7.418458511382384  0.000000
1.44  0.000000  0.000000  0.000000  27.993261621394645  1.5268179237040473  -179.61372226216398  -45.55539021530857  -4.562993147419854  177.3543692114726  88.40530729511538  142.7702467864953  -92.56641818309598  7.466289697579932  0.000000
1.46  0.000000  0.000000  0.000000  27.9902460823184  1.515524272148836  -179.6543617408193  -45.51684325174829  -4.548749281349169  177.3126250960296  88.45797407947545  143.97049869946665  -92.38506857031058  7.510181870843995  0.000000
